<svg xmlns="http://www.w3.org/2000/svg" width="256" height="256" viewBox="0 0 256 256"><g id="geometry" fill="#4a4f55"><g id="tile-00-H_TOP"><rect x="0" y="0" width="64" height="10"/></g><g id="tile-01-H_BOTTOM"><rect x="64" y="54" width="64" height="10"/></g><g id="tile-02-V_LEFT"><rect x="128" y="0" width="10" height="64"/></g><g id="tile-03-V_RIGHT"><rect x="246" y="0" width="10" height="64"/></g><g id="tile-04-CORNER_NW"><rect x="0" y="64" width="64" height="10"/><rect x="0" y="74" width="10" height="54"/></g><g id="tile-05-CORNER_NE"><rect x="64" y="64" width="64" height="10"/><rect x="118" y="74" width="10" height="54"/></g><g id="tile-06-CORNER_SE"><rect x="128" y="118" width="64" height="10"/><rect x="182" y="64" width="10" height="54"/></g><g id="tile-07-CORNER_SW"><rect x="192" y="118" width="64" height="10"/><rect x="192" y="64" width="10" height="54"/></g><g id="tile-08-V_CENTER"><rect x="27" y="128" width="10" height="64"/></g><g id="tile-09-T_TOP_DOWN"><rect x="64" y="128" width="64" height="10"/><rect x="91" y="138" width="10" height="54"/></g><g id="tile-10-T_BOTTOM_UP"><rect x="128" y="182" width="64" height="10"/><rect x="155" y="128" width="10" height="54"/></g><g id="tile-11-CAP_DOWN"><rect x="219" y="128" width="10" height="64"/></g><g id="tile-12-CAP_UP"><rect x="27" y="192" width="10" height="64"/></g><g id="tile-13-RESERVED"></g><g id="tile-14-RESERVED"></g><g id="tile-15-RESERVED"></g></g><g id="cap-hints" fill="#7d848b"><rect x="220" y="186" width="8" height="6"/><rect x="28" y="192" width="8" height="6"/></g></svg>